/* XPM */
static const char* coyotetm_xpm[] = {
"48 48 3 1",
" 	c None",
".	c #EEEEEC",
"+	c #3465A4",
"                                                ",
"                                                ",
"  ............................................  ",
"  .++++++++++++++++++++++++++++++++++++++++++.  ",
"  .++++++++++++++++++++++++++++++++++++++++++.  ",
"  .++++++++++++++++++++++++++++++++++++++++++.  ",
"  .++++++++++++++++++++++++++++++++++++++++++.  ",
"  .++++++++++++++++++++++++++++++++++++++++++.  ",
"  .++++++++++++++++++++++++++++++++++++++++++.  ",
"  .++++++++++++++++++++++++++++++++++++++++++.  ",
"  .++++++++++++++++++++++++++++++++++++++++++.  ",
"  .++++++++++++++++++++++++++++++++++++++++++.  ",
"  .++++++++++++++++++++++++++++++++++++++++++.  ",
"  .................++++++++++.................  ",
"                  .++++++++++.                  ",
"                  .++++++++++.                  ",
"                  .++++++++++.                  ",
"                  .++++++++++.                  ",
"                  .++++++++++.                  ",
"                  .++++++++++.                  ",
"                  .++++++++++.                  ",
"                  .++++++++++.                  ",
"  .................++++++++++.................  ",
"  .+++++++++++++++............+++++++++++++++.  ",
"  .++++++++++++++++++++++++++++++++++++++++++.  ",
"  .++++++++++++++++++++++++++++++++++++++++++.  ",
"  .++++++++++++++++++++++++++++++++++++++++++.  ",
"  .++++++++++++++++++++++++++++++++++++++++++.  ",
"  .++++++++++++++++++++++++++++++++++++++++++.  ",
"  .++++++++++++++++++++++++++++++++++++++++++.  ",
"  .++++++++++++++++++++++++++++++++++++++++++.  ",
"  .++++++++++++++++++++++++++++++++++++++++++.  ",
"  .++++++++++++++++++++++++++++++++++++++++++.  ",
"  .++++++++++++++++++++++++++++++++++++++++++.  ",
"  .++++++++++++++++++++++++++++++++++++++++++.  ",
"  .++++++++++......++++++++++......++++++++++.  ",
"  .++++++++++.    .++++++++++.    .++++++++++.  ",
"  .++++++++++.    .++++++++++.    .++++++++++.  ",
"  .++++++++++.    .++++++++++.    .++++++++++.  ",
"  .++++++++++.    .++++++++++.    .++++++++++.  ",
"  .++++++++++.    .++++++++++.    .++++++++++.  ",
"  .++++++++++.    .++++++++++.    .++++++++++.  ",
"  .++++++++++.    .++++++++++.    .++++++++++.  ",
"  .++++++++++.    .++++++++++.    .++++++++++.  ",
"  .++++++++++.    .++++++++++.    .++++++++++.  ",
"  ............    ............    ............  ",
"                                                ",
"                                                "};
