/* XPM */
static const char* person_xpm[] = {
"24 24 3 1",
" 	c None",
".	c #EEEEEC",
"+	c #3465A4",
"                        ",
"         ......         ",
"        ..++++..        ",
"       .++++++++.       ",
"      .++++++++++.      ",
"     ..++++++++++..     ",
"     .++++++++++++.     ",
"     .++++++++++++.     ",
"     .++++++++++++.     ",
"     .++++++++++++.     ",
"     ..++++++++++..     ",
"      .++++++++++.      ",
"       .++++++++.       ",
"        ..++++..        ",
" ...................... ",
" .++++++++++++++++++++. ",
" .++++++++++++++++++++. ",
" .++++++++++++++++++++. ",
" .++++++++++++++++++++. ",
" .++++++++++++++++++++. ",
" .++++++++++++++++++++. ",
" .++++++++++++++++++++. ",
" ...................... ",
"                        "};
