<?xml version="1.0" encoding="UTF-8"?>
<svg height="128px" viewBox="0 0 128 128" width="128px" xmlns="http://www.w3.org/2000/svg" xmlns:xlink="http://www.w3.org/1999/xlink">
    <clipPath id="a">
        <rect height="128" width="128"/>
    </clipPath>
    <clipPath id="b">
        <rect height="128" width="128"/>
    </clipPath>
    <filter id="c" height="100%" width="100%" x="0%" y="0%">
        <feColorMatrix in="SourceGraphic" type="matrix" values="0 0 0 0 1 0 0 0 0 1 0 0 0 0 1 0 0 0 1 0"/>
    </filter>
    <mask id="d">
        <g clip-path="url(#b)" filter="url(#c)">
            <g clip-path="url(#a)">
                <path d="m 17.859375 186.859375 h 93.28125 v 23.28125 h -93.28125 z m 0 0" fill="#3584e4" stroke="#3584e4" stroke-linecap="round" stroke-linejoin="round" stroke-width="1.72243" transform="matrix(1 0 0 1 0 -172)"/>
                <path d="m 52.78125 206.78125 h 23.4375 v 28.4375 h -23.4375 z m 0 0" fill="#3584e4" stroke="#3584e4" stroke-linecap="round" stroke-linejoin="round" stroke-width="1.55902" transform="matrix(1 0 0 1 0 -172)"/>
                <path d="m 17.75 226.75 h 28.5 v 53.5 h -28.5 z m 0 0" fill="#3584e4" stroke="#3584e4" stroke-linecap="round" stroke-linejoin="round" stroke-width="1.49734" transform="matrix(1 0 0 1 0 -172)"/>
                <path d="m 82.738281 226.738281 h 28.523438 v 53.523438 h -28.523438 z m 0 0" fill="#3584e4" stroke="#3584e4" stroke-linecap="round" stroke-linejoin="round" stroke-width="1.47386" transform="matrix(1 0 0 1 0 -172)"/>
                <path d="m 52.847656 251.847656 h 23.304688 v 28.304688 h -23.304688 z m 0 0" fill="#3584e4" stroke="#3584e4" stroke-linecap="round" stroke-linejoin="round" stroke-width="1.69365" transform="matrix(1 0 0 1 0 -172)"/>
            </g>
        </g>
    </mask>
    <mask id="e">
        <g filter="url(#c)">
            <rect fill-opacity="0.8" height="128" width="128"/>
        </g>
    </mask>
    <linearGradient id="f" gradientTransform="matrix(0 0.37 -0.98462 0 295.38501 -30.360001)" gradientUnits="userSpaceOnUse" x1="300" x2="428" y1="235" y2="235">
        <stop offset="0" stop-color="#f9f06b"/>
        <stop offset="1" stop-color="#f5c211"/>
    </linearGradient>
    <clipPath id="g">
        <rect height="128" width="128"/>
    </clipPath>
    <clipPath id="h">
        <rect height="128" width="128"/>
    </clipPath>
    <g fill="#3584e4" stroke="#3584e4" stroke-linecap="round" stroke-linejoin="round">
        <path d="m 17.859375 14.859375 h 93.28125 v 23.28125 h -93.28125 z m 0 0" stroke-width="1.72243"/>
        <path d="m 52.78125 34.78125 h 23.4375 v 28.4375 h -23.4375 z m 0 0" stroke-width="1.55902"/>
        <path d="m 17.75 54.75 h 28.5 v 53.5 h -28.5 z m 0 0" stroke-width="1.49734"/>
        <path d="m 82.738281 54.738281 h 28.523438 v 53.523438 h -28.523438 z m 0 0" stroke-width="1.47386"/>
        <path d="m 52.847656 79.847656 h 23.304688 v 28.304688 h -23.304688 z m 0 0" stroke-width="1.69365"/>
    </g>
    <g clip-path="url(#h)" mask="url(#d)">
        <g clip-path="url(#g)" mask="url(#e)">
            <path d="m 128 80.640625 v 47.359375 h -128 v -47.359375 z m 0 0" fill="url(#f)"/>
            <path d="m 13.308594 80.640625 l 47.355468 47.359375 h 21.214844 l -47.359375 -47.359375 z m 42.421875 0 l 47.363281 47.359375 h 21.214844 l -47.363282 -47.359375 z m 42.429687 0 l 29.839844 29.839844 v -21.210938 l -8.628906 -8.628906 z m -98.160156 7.90625 v 21.214844 l 18.238281 18.238281 h 21.214844 z m 0 0"/>
        </g>
    </g>
</svg>
